<?xml version="1.0" encoding="iso-8859-1"?>
<!-- Generator: Adobe Illustrator 19.0.0, SVG Export Plug-In . SVG Version: 6.00 Build 0)  -->
<svg version="1.1" id="Layer_1" xmlns="http://www.w3.org/2000/svg" xmlns:xlink="http://www.w3.org/1999/xlink" x="0px" y="0px"
	 viewBox="0 0 512.001 512.001" style="enable-background:new 0 0 512.001 512.001;" xml:space="preserve">
<g>
	<path style="fill:#EBB4A0;" d="M445.936,53.678c33.032,0,66.065,13.015,66.065,24.774c0,13.419-30.279,49.548-57.807,49.548
		c-32.516,0-49.548,8.258-57.807,24.774l-41.29-74.323C404.646,94.968,404.646,53.678,445.936,53.678z"/>
	<path style="fill:#EBB4A0;" d="M66.065,53.678C33.032,53.678,0,66.692,0,78.452C0,91.871,30.279,128,57.807,128
		c32.516,0,49.548,8.258,57.807,24.774l41.29-74.323C107.355,94.968,107.355,53.678,66.065,53.678z"/>
</g>
<g>
	<path style="fill:#FFEBD2;" d="M445.936,53.678c-33.116,0-39.721,26.498-66.58,28.495c-7.687-5.54-16.638-9.558-26.531-11.411
		c-25.65-4.803-58.556-8.826-96.825-8.826s-71.175,4.023-96.825,8.827c-9.892,1.853-18.843,5.87-26.531,11.411
		c-26.858-1.997-33.465-28.496-66.58-28.496c-19.305,0-38.559,4.457-51.27,10.5c21.506-5.684,39.221-6.259,51.27-2.242
		c16.901,5.634,33.786,34.305,42.821,51.974c-3.21,9.139-4.499,19.096-3.329,29.332l22.08,200.069
		c2.829,25.638,17.476,48.482,39.594,61.753l46.28,27.768c26.152,15.691,58.823,15.691,84.976,0l46.28-27.768
		c22.118-13.271,36.765-36.115,39.594-61.753l22.08-200.069c1.17-10.236-0.118-20.193-3.329-29.332
		c9.036-17.669,25.922-46.341,42.823-51.974c12.05-4.017,29.763-3.441,51.27,2.242C484.495,58.135,465.242,53.678,445.936,53.678z"
		/>
	<path style="fill:#FFEBD2;" d="M272.517,458.324h-33.032c-18.243,0-33.032-14.789-33.032-33.032v-16.516
		c0-18.243,14.789-33.032,33.032-33.032h33.032c18.243,0,33.032,14.789,33.032,33.032v16.516
		C305.549,443.534,290.76,458.324,272.517,458.324z"/>
</g>
<path style="fill:#FFFFFF;" d="M301.686,235.087c-2.5-23.33-22.189-41.022-45.654-41.022h-0.032h-0.032
	c-23.464,0-43.154,17.692-45.654,41.023L192.32,403.03c-1.274,11.891,8.044,22.261,20.003,22.261h13.514
	c8.974,0,17.825-2.089,25.852-6.103l4.311-2.155l4.311,2.155c8.027,4.013,16.877,6.103,25.852,6.103h13.514
	c11.959,0,21.277-10.37,20.002-22.26L301.686,235.087z"/>
<g>
	<circle style="fill:#464655;" cx="148.645" cy="194.065" r="16.516"/>
	<circle style="fill:#464655;" cx="363.356" cy="194.065" r="16.516"/>
	<path style="fill:#464655;" d="M296.745,369.985c0.147-0.455,0.398-0.879,0.465-1.352c0.108-0.773-0.01-1.556-0.123-2.333
		c-0.04-0.277,0.024-0.555-0.044-0.827c-0.129-0.511-0.464-0.965-0.694-1.451c-0.237-0.505-0.371-1.042-0.719-1.505l-0.007-0.006
		v-0.001c-2.571-3.426-7.266-4.157-10.832-1.969c-0.234,0.142-0.502,0.179-0.726,0.347l-1.967,1.486
		c-0.408,0.308-0.792,0.598-1.212,0.915c-14.604,11.009-35.017,11.04-49.652,0.074l-3.315-2.484
		c-1.766-1.325-3.886-1.795-5.916-1.555c-0.068,0.008-0.136-0.02-0.204-0.01c-0.435,0.063-0.823,0.299-1.243,0.43
		c-1.602,0.495-3.11,1.341-4.193,2.788c-2.742,3.645-2.001,8.823,1.654,11.556l3.306,2.484c0.01,0.008,0.022,0.012,0.033,0.021
		l29.693,22.27c1.46,1.097,3.202,1.654,4.952,1.654c1.597,0,3.194-0.459,4.588-1.387c1.853-1.24,20.802-15.525,30.233-22.648
		c0.01-0.008,0.023-0.013,0.033-0.022l3.145-2.379l0.005-0.006c0,0,0.001-0.001,0.002-0.002c0.148-0.111,0.215-0.28,0.353-0.398
		c0.711-0.615,1.371-1.276,1.82-2.053C296.475,371.113,296.567,370.537,296.745,369.985z"/>
</g>
<g>
</g>
<g>
</g>
<g>
</g>
<g>
</g>
<g>
</g>
<g>
</g>
<g>
</g>
<g>
</g>
<g>
</g>
<g>
</g>
<g>
</g>
<g>
</g>
<g>
</g>
<g>
</g>
<g>
</g>
</svg>
