<?xml version="1.0" encoding="iso-8859-1"?>
<!-- Generator: Adobe Illustrator 19.0.0, SVG Export Plug-In . SVG Version: 6.00 Build 0)  -->
<svg xmlns="http://www.w3.org/2000/svg" xmlns:xlink="http://www.w3.org/1999/xlink" version="1.1" id="Capa_1" x="0px" y="0px" viewBox="0 0 429.6 429.6" style="enable-background:new 0 0 429.6 429.6;" xml:space="preserve" width="512px" height="512px">
<g>
	<g>
		<path d="M423.201,420.4c0-2.32-8.48-56.48-18.88-96c-10.32-37.6-95.28-67.28-125.12-76.8c13.093-25.454,21.571-53.027,25.04-81.44    c38-5.04,73.6-14.64,73.6-32.72c0-5.28,0-20.96-62.56-31.2V92.08c0-50.8-45.52-92.08-101.44-92.08    c-55.92,0-101.44,41.28-101.44,92.08v10.16c-62.4,10.24-62.56,25.92-62.56,31.2c0,18.08,35.6,27.68,73.6,32.72    c3.503,28.539,12.063,56.225,25.28,81.76c-30.32,9.76-114,39.44-123.76,76.4c-10.56,39.6-18.56,93.84-18.56,96.08    c-0.663,4.368,2.341,8.447,6.709,9.11c0.427,0.065,0.859,0.095,1.291,0.09h400.8c4.418,0.05,8.04-3.491,8.09-7.909    C423.296,421.259,423.266,420.827,423.201,420.4z M128.401,92.08c0-41.92,38.32-76.08,85.44-76.08s85.44,34.16,85.44,76.08v10    c-28.344,3.491-56.882,5.174-85.44,5.04c-28.558,0.137-57.096-1.546-85.44-5.04V92.08z M66.161,133.52h-0.08    c2.48-3.04,16-10.48,53.84-16h0.96c30.786,4.112,61.82,6.09,92.88,5.92c31.059,0.17,62.094-1.808,92.88-5.92h0.96    c38.16,5.76,51.36,13.2,53.84,16c-6.08,8-58.56,22.4-147.76,22.4S72.241,141.84,66.161,133.52z M140.481,171.92h146.72    c-4.4,26.64-21.76,104-73.36,104.56S144.961,198.8,140.481,171.92z M157.775,261.861c12.599,18.674,33.465,30.087,55.986,30.619    c22.57-0.601,43.447-12.113,56-30.88c12.72,3.84,27.28,8.96,41.92,14.88l-5.28,83.2h-184.24l-5.28-83.2    C131.017,270.81,145.231,265.698,157.775,261.861z M65.441,413.84h-42.08c2.8-17.36,9.36-56,17.12-85.2    c2.24-8.56,11.84-17.52,25.12-26.16L65.441,413.84z M347.121,413.84h-265.6V292.8c6.24-3.36,12.88-6.56,19.68-9.6l5.44,84.96    c0.254,4.23,3.763,7.528,8,7.52h199.52c4.237,0.008,7.746-3.29,8-7.52l5.44-84.96c6.8,3.12,13.44,6.32,19.68,9.6L347.121,413.84z     M363.121,413.84V302.16c13.28,8.64,22.8,17.68,25.12,26.16c8,29.28,14.32,67.84,17.12,85.2L363.121,413.84z" fill="#FFFFFF"/>
	</g>
</g>
<g>
</g>
<g>
</g>
<g>
</g>
<g>
</g>
<g>
</g>
<g>
</g>
<g>
</g>
<g>
</g>
<g>
</g>
<g>
</g>
<g>
</g>
<g>
</g>
<g>
</g>
<g>
</g>
<g>
</g>
</svg>
