<?xml version="1.0" encoding="iso-8859-1"?>
<!-- Generator: Adobe Illustrator 19.0.0, SVG Export Plug-In . SVG Version: 6.00 Build 0)  -->
<svg version="1.1" id="Layer_1" xmlns="http://www.w3.org/2000/svg" xmlns:xlink="http://www.w3.org/1999/xlink" x="0px" y="0px"
	 viewBox="0 0 512.001 512.001" style="enable-background:new 0 0 512.001 512.001;" xml:space="preserve">
<g>
	<path style="fill:#464655;" d="M123.949,146.034c-24.76,8.253-43.858-13.962-58.3-13.831C51.207,132.333-0.168,155.498,0,174.067
		C0.167,192.3,82.682,245.073,140.455,187.3L123.949,146.034z"/>
	<path style="fill:#464655;" d="M388.052,146.034c24.76,8.253,43.858-13.962,58.3-13.831c14.442,0.131,65.816,23.296,65.648,41.865
		c-0.166,18.233-82.682,71.006-140.455,13.233L388.052,146.034z"/>
</g>
<path style="fill:#FFEBD2;" d="M342.439,385.215c19.068-82.837,53.867-237.293,53.867-261.266c0-24.76,0-33.013-16.506-49.519
	c-5.26-5.26-15.628-10.469-28.22-15.324c-61.338-23.649-129.818-23.649-191.156,0c-12.592,4.855-22.959,10.064-28.22,15.324
	c-16.506,16.506-16.506,24.76-16.506,49.519c0,23.973,34.799,178.429,53.867,261.266l-14.078,49.274
	c-7.532,26.361,12.262,52.603,39.678,52.603h121.674c27.416,0,47.211-26.241,39.678-52.603L342.439,385.215z"/>
<path style="fill:#EBB4A0;" d="M298.998,406.514h-85.995c-12.718,0-23.029,10.31-23.029,23.029l0,0
	c0,10.654,2.896,21.108,8.377,30.243l9.17,15.284c4.474,7.458,12.534,12.021,21.231,12.021h54.494
	c8.698,0,16.757-4.563,21.231-12.021l9.17-15.284c5.481-9.135,8.377-19.589,8.377-30.243l0,0
	C322.026,416.824,311.716,406.514,298.998,406.514z"/>
<g>
	<path style="fill:#D7A091;" d="M222.987,454.078c-2.112,0-4.224-0.806-5.835-2.418l-16.506-16.506
		c-3.224-3.224-3.224-8.447,0-11.671c3.224-3.224,8.447-3.224,11.671,0l16.506,16.506c3.224,3.224,3.224,8.446,0,11.67
		C227.211,453.272,225.099,454.078,222.987,454.078z"/>
	<path style="fill:#D7A091;" d="M289.013,454.078c-2.112,0-4.224-0.806-5.835-2.418c-3.224-3.224-3.224-8.446,0-11.67l16.507-16.506
		c3.224-3.224,8.447-3.224,11.671,0c3.224,3.224,3.224,8.447,0,11.671l-16.506,16.506
		C293.237,453.272,291.125,454.078,289.013,454.078z"/>
</g>
<path style="fill:#FFDEB7;" d="M379.799,74.429c-5.187-5.187-15.345-10.324-27.701-15.121c-7.631-9.224-18.432-20.325-30.072-26.145
	C305.52,24.909,256,24.909,256,24.909s-49.519,0-66.026,8.253c-11.641,5.821-22.441,16.921-30.072,26.145
	c-12.355,4.797-22.513,9.934-27.701,15.121c-14.713,14.713-16.304,22.947-16.479,42.08c11.315,0.526,25.431,1.112,32.154,1.112
	c50.35,0,92.638-23.539,106.987-33.987l-7.952,33.086c26.134-0.237,72.695-23.358,82.229-33.762l8.553,32.937
	c25.598-16.708,25.598-24.961,25.598-24.961s16.683,0.02,31.792,9.152C393.437,91.05,389.509,84.139,379.799,74.429z"/>
<path style="fill:#6B676E;" d="M116.008,107.526c-0.294,4.655-0.313,9.959-0.313,16.422c0,23.973,34.799,178.429,53.867,261.266
	c0,0,45.172-87.948,45.172-104.454C214.734,264.27,222.962,132.476,116.008,107.526z"/>
<ellipse style="fill:#464655;" cx="161.093" cy="202.359" rx="12.38" ry="20.633"/>
<path style="fill:#6B676E;" d="M395.993,107.526c0.294,4.655,0.313,9.959,0.313,16.422c0,23.973-34.799,178.429-53.867,261.266
	c0,0-45.172-87.948-45.172-104.454C297.267,264.27,289.04,132.476,395.993,107.526z"/>
<ellipse style="fill:#464655;" cx="350.908" cy="202.359" rx="12.38" ry="20.633"/>
<g>
</g>
<g>
</g>
<g>
</g>
<g>
</g>
<g>
</g>
<g>
</g>
<g>
</g>
<g>
</g>
<g>
</g>
<g>
</g>
<g>
</g>
<g>
</g>
<g>
</g>
<g>
</g>
<g>
</g>
</svg>
