<?xml version="1.0" encoding="iso-8859-1"?>
<!-- Generator: Adobe Illustrator 19.0.0, SVG Export Plug-In . SVG Version: 6.00 Build 0)  -->
<svg version="1.1" id="Layer_1" xmlns="http://www.w3.org/2000/svg" xmlns:xlink="http://www.w3.org/1999/xlink" x="0px" y="0px"
	 viewBox="0 0 512.001 512.001" style="enable-background:new 0 0 512.001 512.001;" xml:space="preserve">
<path style="fill:#FFD2B9;" d="M0,16.516c0,140.387,99.097,173.42,132.129,156.904l57.807-57.807C156.904,24.774,0,16.516,0,16.516z
	"/>
<path style="fill:#EBB4A0;" d="M127.341,175.275c12.762-25.028,14.067-63.393-3.469-84.436C82.581,41.29,33.032,41.29,0,16.516
	C0,150.706,90.499,186.772,127.341,175.275z"/>
<path style="fill:#FFD2B9;" d="M512,16.516c0,140.387-99.097,173.42-132.129,156.904l-57.807-57.807
	C355.098,24.774,512,16.516,512,16.516z"/>
<path style="fill:#EBB4A0;" d="M384.659,175.275c-12.762-25.028-14.066-63.393,3.47-84.436
	c41.29-49.548,90.839-49.548,123.871-74.323C512,150.706,421.501,186.772,384.659,175.275z"/>
<path style="fill:#FFD2B9;" d="M437.678,313.807c0,100.338-81.34,181.678-181.678,181.678S74.323,414.145,74.323,313.807
	S137.42,90.839,256.001,90.839S437.678,213.469,437.678,313.807z"/>
<path style="fill:#D7A091;" d="M190.382,389.064c8.563,33.472,32.694,57.453,66.715,57.204c34.022-0.249,56.931-25.81,65.409-58.405
	L190.382,389.064z"/>
<path style="fill:#EBB4A0;" d="M338.802,363.591c0.45,49.47-57.514,32.376-82.288,32.601c-24.257,0.221-82.417,18.37-82.867-31.1
	c-0.459-50.526,36.139-91.822,81.746-92.236S338.343,313.065,338.802,363.591z"/>
<g>
	<circle style="fill:#464655;" cx="152.775" cy="227.097" r="12.387"/>
	<circle style="fill:#464655;" cx="359.227" cy="227.097" r="12.387"/>
</g>
<g>
	<circle style="fill:#D7A091;" cx="227.097" cy="334.452" r="12.387"/>
	<circle style="fill:#D7A091;" cx="284.904" cy="334.452" r="12.387"/>
</g>
<g>
</g>
<g>
</g>
<g>
</g>
<g>
</g>
<g>
</g>
<g>
</g>
<g>
</g>
<g>
</g>
<g>
</g>
<g>
</g>
<g>
</g>
<g>
</g>
<g>
</g>
<g>
</g>
<g>
</g>
</svg>
